<mxfile host="65bd71144e">
    <diagram id="vD26gfZvsMTgrpSpzd3H" name="Page-1">
        <mxGraphModel dx="1669" dy="1713" grid="1" gridSize="10" guides="1" tooltips="1" connect="1" arrows="1" fold="1" page="1" pageScale="1" pageWidth="850" pageHeight="1100" background="#ffffff" math="0" shadow="0">
            <root>
                <mxCell id="0"/>
                <mxCell id="1" parent="0"/>
                <mxCell id="3" value="" style="rounded=1;whiteSpace=wrap;html=1;fillColor=#dae8fc;strokeColor=#6c8ebf;" parent="1" vertex="1">
                    <mxGeometry x="100" y="60" width="220" height="420" as="geometry"/>
                </mxCell>
                <mxCell id="4" value="" style="rounded=1;whiteSpace=wrap;html=1;fillColor=#dae8fc;strokeColor=#6c8ebf;" parent="1" vertex="1">
                    <mxGeometry x="460" y="60" width="220" height="420" as="geometry"/>
                </mxCell>
                <mxCell id="5" value="&lt;h2&gt;&lt;font color=&quot;#000000&quot;&gt;Time&lt;/font&gt;&lt;/h2&gt;" style="text;strokeColor=none;align=center;fillColor=none;html=1;verticalAlign=middle;whiteSpace=wrap;rounded=0;" parent="1" vertex="1">
                    <mxGeometry x="-10" y="220" width="60" height="30" as="geometry"/>
                </mxCell>
                <mxCell id="6" value="" style="endArrow=classic;html=1;fontColor=#000000;strokeColor=#000000;" parent="1" edge="1">
                    <mxGeometry width="50" height="50" relative="1" as="geometry">
                        <mxPoint x="50" y="70" as="sourcePoint"/>
                        <mxPoint x="50" y="430" as="targetPoint"/>
                    </mxGeometry>
                </mxCell>
                <mxCell id="7" value="&lt;h1&gt;load&lt;/h1&gt;" style="text;strokeColor=none;align=center;fillColor=none;html=1;verticalAlign=middle;whiteSpace=wrap;rounded=0;fontColor=#000000;" parent="1" vertex="1">
                    <mxGeometry x="540" y="10" width="60" height="30" as="geometry"/>
                </mxCell>
                <mxCell id="8" value="&lt;h1&gt;store&lt;/h1&gt;" style="text;strokeColor=none;align=center;fillColor=none;html=1;verticalAlign=middle;whiteSpace=wrap;rounded=0;fontColor=#000000;" parent="1" vertex="1">
                    <mxGeometry x="180" y="10" width="60" height="30" as="geometry"/>
                </mxCell>
                <mxCell id="9" value="&lt;div style=&quot;font-family: Consolas, &amp;quot;Courier New&amp;quot;, monospace; font-size: 15px; line-height: 20px;&quot;&gt;size_t seq0 = seq_&lt;/div&gt;" style="text;strokeColor=none;align=center;fillColor=none;html=1;verticalAlign=middle;whiteSpace=wrap;rounded=0;fontColor=#000000;" parent="1" vertex="1">
                    <mxGeometry x="100" y="170" width="210" height="30" as="geometry"/>
                </mxCell>
                <mxCell id="11" value="&lt;div style=&quot;font-family: Consolas, &amp;quot;Courier New&amp;quot;, monospace; font-weight: normal; font-size: 15px; line-height: 20px;&quot;&gt;&lt;div style=&quot;&quot;&gt;seq_ = seq0 + 1&lt;/div&gt;&lt;/div&gt;" style="text;whiteSpace=wrap;html=1;fontColor=#000000;" parent="1" vertex="1">
                    <mxGeometry x="140" y="190" width="160" height="40" as="geometry"/>
                </mxCell>
                <mxCell id="14" value="&lt;h2&gt;&lt;font style=&quot;&quot;&gt;Load input.data1 and input.data2&lt;/font&gt;&lt;/h2&gt;" style="text;strokeColor=none;align=center;fillColor=none;html=1;verticalAlign=middle;whiteSpace=wrap;rounded=0;fontColor=#000000;" parent="1" vertex="1">
                    <mxGeometry x="110" y="230" width="220" height="30" as="geometry"/>
                </mxCell>
                <mxCell id="15" value="&lt;div style=&quot;font-family: Consolas, &amp;quot;Courier New&amp;quot;, monospace; font-weight: normal; font-size: 15px; line-height: 20px;&quot;&gt;&lt;div style=&quot;&quot;&gt;seq_ = seq0 + 2&lt;/div&gt;&lt;/div&gt;" style="text;whiteSpace=wrap;html=1;fontColor=#000000;" parent="1" vertex="1">
                    <mxGeometry x="140" y="430" width="160" height="40" as="geometry"/>
                </mxCell>
                <mxCell id="21" value="&lt;div style=&quot;font-family: Consolas, &amp;quot;Courier New&amp;quot;, monospace; font-weight: normal; font-size: 15px; line-height: 20px;&quot;&gt;&lt;div style=&quot;&quot;&gt;seq0 = seq_&lt;/div&gt;&lt;/div&gt;" style="text;whiteSpace=wrap;html=1;fontColor=#000000;" parent="1" vertex="1">
                    <mxGeometry x="520" y="75" width="120" height="40" as="geometry"/>
                </mxCell>
                <mxCell id="25" value="&lt;div style=&quot;font-family: Consolas, &amp;quot;Courier New&amp;quot;, monospace; font-weight: normal; font-size: 15px; line-height: 20px;&quot;&gt;&lt;div style=&quot;&quot;&gt;seq1 = seq_&lt;/div&gt;&lt;/div&gt;" style="text;whiteSpace=wrap;html=1;fontColor=#000000;" parent="1" vertex="1">
                    <mxGeometry x="520" y="105" width="120" height="40" as="geometry"/>
                </mxCell>
                <mxCell id="27" value="&lt;h2&gt;Store to data1_&lt;/h2&gt;" style="text;strokeColor=none;align=center;fillColor=none;html=1;verticalAlign=middle;whiteSpace=wrap;rounded=0;fontColor=#000000;" parent="1" vertex="1">
                    <mxGeometry x="100" y="270" width="220" height="30" as="geometry"/>
                </mxCell>
                <mxCell id="28" value="&lt;h2&gt;Now (seq0 == seq1) and (seq0 &amp;amp; 1 == 0), end the loop&lt;/h2&gt;" style="text;strokeColor=none;align=center;fillColor=none;html=1;verticalAlign=middle;whiteSpace=wrap;rounded=0;fontColor=#000000;" parent="1" vertex="1">
                    <mxGeometry x="475" y="400" width="190" height="30" as="geometry"/>
                </mxCell>
                <mxCell id="29" value="&lt;h2&gt;ret.data1 = data1_&lt;/h2&gt;" style="text;strokeColor=none;align=center;fillColor=none;html=1;verticalAlign=middle;whiteSpace=wrap;rounded=0;fontColor=#000000;" parent="1" vertex="1">
                    <mxGeometry x="460" y="320" width="220" height="30" as="geometry"/>
                </mxCell>
                <mxCell id="30" value="&lt;h2&gt;ret.data2 = data2_&lt;/h2&gt;" style="text;strokeColor=none;align=center;fillColor=none;html=1;verticalAlign=middle;whiteSpace=wrap;rounded=0;fontColor=#000000;" parent="1" vertex="1">
                    <mxGeometry x="460" y="350" width="220" height="30" as="geometry"/>
                </mxCell>
                <mxCell id="32" value="" style="rounded=1;whiteSpace=wrap;html=1;labelBackgroundColor=none;strokeColor=#FF8000;fontFamily=Lucida Console;fontColor=none;fillColor=none;" parent="1" vertex="1">
                    <mxGeometry x="100" y="170" width="220" height="50" as="geometry"/>
                </mxCell>
                <mxCell id="34" value="" style="rounded=1;whiteSpace=wrap;html=1;labelBackgroundColor=none;strokeColor=#FF8000;fontFamily=Lucida Console;fontColor=none;fillColor=none;" parent="1" vertex="1">
                    <mxGeometry x="100" y="220" width="220" height="50" as="geometry"/>
                </mxCell>
                <mxCell id="35" value="" style="rounded=1;whiteSpace=wrap;html=1;labelBackgroundColor=none;strokeColor=#FF8000;fontFamily=Lucida Console;fontColor=none;fillColor=none;" parent="1" vertex="1">
                    <mxGeometry x="100" y="430" width="220" height="30" as="geometry"/>
                </mxCell>
                <mxCell id="36" value="" style="rounded=1;whiteSpace=wrap;html=1;labelBackgroundColor=none;strokeColor=#FF8000;fontFamily=Lucida Console;fontColor=none;fillColor=none;" parent="1" vertex="1">
                    <mxGeometry x="100" y="400" width="220" height="30" as="geometry"/>
                </mxCell>
                <mxCell id="37" value="" style="rounded=1;whiteSpace=wrap;html=1;labelBackgroundColor=none;strokeColor=#FF8000;fontFamily=Lucida Console;fontColor=none;fillColor=none;" parent="1" vertex="1">
                    <mxGeometry x="460" y="380" width="220" height="70" as="geometry"/>
                </mxCell>
                <mxCell id="38" value="" style="rounded=1;whiteSpace=wrap;html=1;labelBackgroundColor=none;strokeColor=#FF8000;fontFamily=Lucida Console;fontColor=none;fillColor=none;" parent="1" vertex="1">
                    <mxGeometry x="460" y="75" width="220" height="30" as="geometry"/>
                </mxCell>
                <mxCell id="39" value="" style="rounded=1;whiteSpace=wrap;html=1;labelBackgroundColor=none;strokeColor=#FF0000;fontFamily=Lucida Console;fontColor=none;fillColor=none;strokeWidth=3;" parent="1" vertex="1">
                    <mxGeometry x="460" y="320" width="220" height="30" as="geometry"/>
                </mxCell>
                <mxCell id="40" value="" style="rounded=1;whiteSpace=wrap;html=1;labelBackgroundColor=none;strokeColor=#FF8000;fontFamily=Lucida Console;fontColor=none;fillColor=none;" parent="1" vertex="1">
                    <mxGeometry x="460" y="105" width="220" height="40" as="geometry"/>
                </mxCell>
                <mxCell id="41" value="&lt;h2&gt;&lt;font color=&quot;#ff0000&quot;&gt;Wrong pairing!&lt;/font&gt;&lt;/h2&gt;" style="text;strokeColor=none;align=center;fillColor=none;html=1;verticalAlign=middle;whiteSpace=wrap;rounded=0;labelBackgroundColor=none;strokeWidth=3;fontFamily=Lucida Console;fontColor=none;" parent="1" vertex="1">
                    <mxGeometry x="690" y="330" width="80" height="40" as="geometry"/>
                </mxCell>
                <mxCell id="42" value="" style="ellipse;whiteSpace=wrap;html=1;labelBackgroundColor=none;strokeColor=none;strokeWidth=3;fontFamily=Lucida Console;fontColor=#FF0000;fillColor=none;" parent="1" vertex="1">
                    <mxGeometry x="-10" y="270" width="230" height="260" as="geometry"/>
                </mxCell>
                <mxCell id="43" value="" style="ellipse;whiteSpace=wrap;html=1;labelBackgroundColor=none;strokeColor=none;strokeWidth=3;fontFamily=Lucida Console;fontColor=#FF0000;fillColor=none;" parent="1" vertex="1">
                    <mxGeometry x="-20" y="-30" width="230" height="260" as="geometry"/>
                </mxCell>
                <mxCell id="44" value="" style="ellipse;whiteSpace=wrap;html=1;labelBackgroundColor=none;strokeColor=none;strokeWidth=3;fontFamily=Lucida Console;fontColor=#FF0000;fillColor=none;" parent="1" vertex="1">
                    <mxGeometry x="550" y="370" width="230" height="160" as="geometry"/>
                </mxCell>
                <mxCell id="46" value="" style="rounded=1;whiteSpace=wrap;html=1;labelBackgroundColor=none;strokeColor=#FF0000;fontFamily=Lucida Console;fontColor=none;fillColor=none;strokeWidth=3;" vertex="1" parent="1">
                    <mxGeometry x="460" y="350" width="220" height="30" as="geometry"/>
                </mxCell>
                <mxCell id="49" value="&lt;h2&gt;Store to data2_&lt;/h2&gt;" style="text;strokeColor=none;align=center;fillColor=none;html=1;verticalAlign=middle;whiteSpace=wrap;rounded=0;fontColor=#000000;" vertex="1" parent="1">
                    <mxGeometry x="100" y="400" width="220" height="30" as="geometry"/>
                </mxCell>
                <mxCell id="50" value="" style="rounded=1;whiteSpace=wrap;html=1;labelBackgroundColor=none;strokeColor=#FF8000;fontFamily=Lucida Console;fontColor=none;fillColor=none;" vertex="1" parent="1">
                    <mxGeometry x="100" y="270" width="220" height="30" as="geometry"/>
                </mxCell>
            </root>
        </mxGraphModel>
    </diagram>
</mxfile>